<?xml version="1.0"?>
<svg width="460" height="345" xmlns="http://www.w3.org/2000/svg" xmlns:svg="http://www.w3.org/2000/svg" preserveAspectRatio="xMidYMid meet" version="1.0">
 <g class="layer">
  <title>Layer 1</title>
  <g fill="#E65A5AFF" id="svg_1" stroke="#E65A5AFF" stroke-opacity="0">
   <path d="m207.87,175.85c3.76,4.52 3.68,9.02 -0.24,13.49c-3.89,4.42 -10.51,7.2 -20.76,8.69l-8.25,1.2l0,39.83c0,25.26 0.36,40.05 0.99,40.44c1.54,0.95 15.82,-1.3 22.69,-3.57c3.4,-1.13 8.05,-3.4 10.33,-5.05c7.37,-5.34 7.3,-4.5 3.93,-49c-1.63,-21.66 -3.47,-40.63 -4.09,-42.16c-0.61,-1.52 -2.52,-3.76 -4.23,-4.97l-3.12,-2.2l2.75,3.3" fill="#ff7f00" id="svg_2" stroke="#000000"/>
  </g>
  <g fill="#EB7373FF" id="svg_3" stroke="#EB7373FF" stroke-opacity="0">
   <path d="m149.13,177.09c-1.51,1.68 -2.95,4.04 -3.2,5.24c-0.59,2.88 -5.6,72.08 -5.57,77.05c0.03,5.63 3.12,9.86 9.76,13.38c7.12,3.78 12.63,5.3 22.06,6.11l7.29,0.63l-0.06,-40.14l-0.07,-40.14l-2.23,-0.59c-1.23,-0.33 -3.42,-0.61 -4.88,-0.62c-1.45,0 -5.61,-0.93 -9.25,-2.05c-12.23,-3.78 -17.63,-11.87 -12.85,-19.24c1.56,-2.4 1.45,-2.36 -1,0.37" fill="#f29137" id="svg_4" stroke="#000000"/>
  </g>
  <g fill="#E65A5AFF" id="svg_5" stroke="#E65A5AFF" stroke-opacity="0" transform="matrix(1, 0, 0, 1, 0, 0)">
   <path d="m277.92,104.87l-25.18,25.25l3.4,4c5.01,5.89 8.48,13.61 8.48,18.85c0,6.05 -0.75,7.64 -4.4,9.22l-3.1,1.35l2.67,0.04c3.06,0.05 1.54,1.23 33.55,-26.2c13.31,-11.42 24.73,-21.74 25.37,-22.93c1.68,-3.15 0.5,-11.71 -2.48,-17.96c-2.57,-5.4 -10.99,-16.87 -12.38,-16.87c-0.41,0 -12.08,11.36 -25.93,25.25" fill="#8f4dd1" id="svg_6" stroke="#000000"/>
  </g>
  <g fill="#EB7373FF" id="svg_7" stroke="#EB7373FF" stroke-opacity="0">
   <path d="m269.8,65.01c-0.93,0.27 -12.52,13.1 -25.75,28.5c-18.73,21.8 -24.04,28.59 -24.01,30.68l0.04,2.69l1.35,-3.1c1.57,-3.61 3.19,-4.41 8.9,-4.38c4.96,0.03 11.08,2.64 17.89,7.64l4.96,3.64l25.46,-25.4l25.46,-25.4l-4.3,-3.79c-8.54,-7.52 -23.44,-13.02 -30,-11.08" fill="#9d66dd" id="svg_8" stroke="#000000"/>
  </g>
  <g fill="#A0C8AAFF" id="svg_11" stroke="#A0C8AAFF">
   <path d="m181.84,167.1c-1.23,0.76 -1.5,4.23 -1.03,13.4c0.08,1.65 -0.11,6.33 -0.42,10.4l-0.57,7.41l6.41,-0.6c12.3,-1.15 22.76,-6.84 24.37,-13.25c1.15,-4.59 -2.12,-9.42 -8.6,-12.68c-6.24,-3.14 -18.17,-5.91 -20.16,-4.68" id="svg_12"/>
  </g>
  <g fill="#C8DCC8FF" id="svg_13" stroke="#C8DCC8FF">
   <path d="m167.5,168.13c-5.69,1.03 -11.73,3.98 -15.75,7.7c-2.14,1.98 -2.75,3.45 -2.75,6.67c0,4.98 2.97,8.28 10.44,11.58c4.71,2.08 22.41,5.4 23.42,4.4c0.26,-0.26 -0.31,-0.48 -1.26,-0.48c-1.51,0 -1.7,-0.95 -1.5,-7.25c0.13,-3.99 -0.07,-7.14 -0.43,-7c-0.37,0.14 -1.08,0.25 -1.59,0.25c-1.4,0 -3.2,-9.85 -2.49,-13.64c0.71,-3.8 0.65,-3.81 -8.09,-2.23" id="svg_14"/>
  </g>
  <g fill="#C8DCC8FF" id="svg_15" stroke="#C8DCC8FF">
   <path d="m225.31,119.95c-6.87,2.94 -5.06,15.83 3.7,26.19l2.84,3.36l5.36,-5.25c2.94,-2.89 5.81,-5.25 6.37,-5.25c0.56,0 2.79,-1.84 4.97,-4.08l3.95,-4.08l-3.31,-2.8c-7.94,-6.69 -18.65,-10.32 -23.88,-8.09" id="svg_16"/>
  </g>
  <g fill="#A0C8AAFF" id="svg_17" stroke="#A0C8AAFF">
   <path d="m248.75,134.72c-2.17,2.24 -3.75,4.85 -3.75,6.22c0,1.47 -1.81,4.15 -4.87,7.22l-4.88,4.87l3.13,2.64c4.73,4 12.6,7.31 17.41,7.32c3.29,0.01 4.9,-0.59 6.88,-2.56c2.22,-2.23 2.51,-3.23 2.12,-7.31c-0.55,-5.73 -4.06,-13.04 -8.79,-18.34l-3.5,-3.92l-3.75,3.86" id="svg_18"/>
  </g>
  <g fill="#A0C8AAFF" id="svg_19" stroke="#A0C8AAFF">
   <path d="m220,259.54c0,8.51 -9.47,15.76 -24.86,19.02c-3.65,0.77 -8.55,1.41 -10.89,1.42c-4.18,0.02 -4.25,0.08 -4.25,3.47c0,3.38 -0.08,3.45 -4.75,3.87c-2.61,0.24 0.65,0.3 7.25,0.14c14.06,-0.33 24.7,-3.18 33.14,-8.89c10.04,-6.79 13.86,-19.2 6.88,-22.38c-2.49,-1.13 -2.52,-1.1 -2.52,3.35" id="svg_20"/>
  </g>
  <g fill="#C8DCC8FF" id="svg_21" stroke="#C8DCC8FF">
   <path d="m135.66,257.83c-3.9,4.3 -0.23,14.43 7.03,19.44c8.27,5.72 21.35,9.68 32.06,9.71l5.25,0.02l0,-3.5l0,-3.5l-4.75,-0.02c-6.75,-0.02 -17.18,-2.41 -23.43,-5.37c-7.72,-3.66 -11.92,-8.34 -12.56,-14.02c-0.57,-5.05 -1.14,-5.49 -3.6,-2.76" id="svg_22"/>
  </g>
  <g fill="#A0C8AAFF" id="svg_23" stroke="#A0C8AAFF" transform="rotate(-0.29722, 315.905, 97.95)">
   <path d="m307.13,76.37l-2.32,2.46l5.11,6.67c6.27,8.18 7.67,10.82 9.57,18.13c1.71,6.55 0.82,11.87 -2.46,14.84c-2.34,2.12 -1.8,3.53 1.35,3.53c4.41,0 8.62,-6.79 8.62,-13.88c0,-8.18 -5.53,-20.04 -14.03,-30.06l-3.53,-4.16l-2.31,2.47" id="svg_24"/>
  </g>
  <g fill="#C8DCC8FF" id="svg_25" stroke="#C8DCC8FF">
   <path d="m267,60.19c-2.68,1.82 -3.58,3.19 -3.83,5.84l-0.33,3.47l2.42,-2.27c5.23,-4.91 12.86,-4.78 23.19,0.4c6.21,3.11 10.84,6.54 15.99,11.82c2.17,2.23 3.11,3.03 2.09,1.79c-1.82,-2.21 -1.81,-2.31 0.33,-4.59l2.18,-2.32l-6.07,-4.77c-9.44,-7.42 -17.04,-10.8 -25.39,-11.32c-6.22,-0.38 -7.5,-0.15 -10.58,1.95" id="svg_26"/>
  </g>
  <g fill="#FFD25AFF" id="svg_9" stroke="#FFD25AFF">
   <path d="m183.95,101.51c-2.08,1.43 -5.05,4.83 -6.62,7.52c-2.53,4.4 -2.83,5.9 -2.83,14.26c0,10.88 1.31,14.34 8.47,22.45l4.63,5.24l-3.26,2.59c-4.38,3.5 -7.19,9.4 -7.94,16.77c-0.69,6.77 0.96,13.66 3.26,13.66c1.17,0 1.33,-1.46 0.81,-7.7c-0.59,-7.1 -0.43,-8.08 2.07,-12.42c1.5,-2.59 4.22,-5.88 6.06,-7.31l3.34,-2.59l6.58,2.76c5.16,2.16 8.23,2.75 14.22,2.73c11.09,-0.05 18.06,-3.06 26.76,-11.6c7.17,-7.04 7.85,-8.18 5.42,-9.12c-0.88,-0.34 -2.96,1.12 -5.2,3.64c-4.53,5.1 -15.78,11.04 -22.77,12.02c-5.02,0.71 -14.51,-0.67 -17.42,-2.53c-1.18,-0.75 -0.62,-1.88 2.9,-5.75c2.4,-2.66 5.52,-7.39 6.92,-10.53c5.08,-11.28 1.72,-27.15 -7.11,-33.67c-5.51,-4.06 -12.8,-4.22 -18.3,-0.42m15.49,4.52c4.37,3.24 7.18,10.05 7.18,17.46c0,7.78 -1.46,11.7 -6.6,17.71c-6.41,7.51 -7.11,7.56 -13.34,0.86c-6.48,-6.98 -7.94,-10.97 -7.42,-20.28c0.81,-14.51 11.03,-22.49 20.18,-15.75" id="svg_10"/>
  </g>
 </g>

</svg>