<?xml version="1.0"?>
<svg width="512" height="512" xmlns="http://www.w3.org/2000/svg" xmlns:svg="http://www.w3.org/2000/svg" preserveAspectRatio="xMidYMid meet" version="1.0">
 <g class="layer">
  <title>Layer 1</title>
  <g id="svg_27">
   <g fill="#E65A5AFF" id="svg_1" stroke="#E65A5AFF" stroke-opacity="0">
    <path d="m216.97,264.08c8.3,9.98 8.12,19.91 -0.53,29.78c-8.59,9.76 -23.19,15.89 -45.83,19.19l-18.21,2.65l0,87.92c0,55.77 0.8,88.41 2.19,89.27c3.4,2.1 34.92,-2.87 50.09,-7.88c7.5,-2.5 17.77,-7.5 22.81,-11.15c16.27,-11.79 16.11,-9.94 8.67,-108.16c-3.59,-47.81 -7.66,-89.68 -9.02,-93.06c-1.35,-3.36 -5.56,-8.3 -9.33,-10.98l-6.89,-4.85l6.06,7.28" fill="#ff7f00" id="svg_2" stroke="#000000"/>
   </g>
   <g fill="#EB7373FF" id="svg_3" stroke="#EB7373FF" stroke-opacity="0">
    <path d="m87.3,266.81c-3.33,3.71 -6.51,8.92 -7.07,11.57c-1.3,6.36 -12.37,159.1 -12.29,170.08c0.06,12.43 6.89,21.76 21.54,29.54c15.72,8.34 27.88,11.7 48.7,13.49l16.09,1.39l-0.13,-88.61l-0.15,-88.61l-4.93,-1.3c-2.72,-0.72 -7.54,-1.35 -10.77,-1.38c-3.2,0 -12.38,-2.06 -20.41,-4.53c-27,-8.34 -38.92,-26.2 -28.37,-42.47c3.45,-5.3 3.2,-5.21 -2.2,0.81" fill="#f29137" id="svg_4" stroke="#000000"/>
   </g>
   <g fill="#E65A5AFF" id="svg_5" stroke="#E65A5AFF" stroke-opacity="0">
    <path d="m371.59,107.4l-55.59,55.74l7.5,8.83c11.06,13 18.71,30.04 18.71,41.61c0,13.36 -1.66,16.86 -9.72,20.35l-6.85,2.97l5.89,0.09c6.76,0.1 3.4,2.72 74.06,-57.84c29.38,-25.21 54.58,-47.99 56,-50.62c3.71,-6.95 1.11,-25.84 -5.47,-39.64c-5.68,-11.92 -24.26,-37.23 -27.32,-37.23c-0.9,0 -26.67,25.07 -57.25,55.74" fill="#8f4dd1" id="svg_6" stroke="#000000"/>
   </g>
   <g fill="#EB7373FF" id="svg_7" stroke="#EB7373FF" stroke-opacity="0">
    <path d="m353.68,19.41c-2.06,0.59 -27.63,28.92 -56.85,62.91c-41.34,48.12 -53.06,63.1 -53,67.72l0.09,5.93l2.97,-6.85c3.46,-7.97 7.04,-9.73 19.64,-9.67c10.95,0.06 24.45,5.83 39.5,16.86l10.95,8.03l56.2,-56.06l56.2,-56.06l-9.5,-8.37c-18.85,-16.6 -51.74,-28.74 -66.22,-24.45" fill="#9d66dd" id="svg_8" stroke="#000000"/>
   </g>
   <g fill="#A0C8AAFF" id="svg_11" stroke="#A0C8AAFF">
    <path d="m159.5,244.76c-2.72,1.67 -3.31,9.33 -2.28,29.58c0.18,3.64 -0.24,13.98 -0.93,22.96l-1.26,16.36l14.16,-1.33c27.16,-2.54 50.23,-15.1 53.8,-29.24c2.54,-10.13 -4.67,-20.8 -18.98,-27.99c-13.77,-6.94 -40.1,-13.05 -44.49,-10.32" id="svg_12"/>
   </g>
   <g fill="#C8DCC8FF" id="svg_13" stroke="#C8DCC8FF">
    <path d="m127.85,247.04c-12.56,2.28 -25.89,8.79 -34.76,17c-4.72,4.36 -6.06,7.62 -6.06,14.72c0,10.99 6.55,18.28 23.05,25.56c10.4,4.59 49.47,11.92 51.7,9.72c0.58,-0.58 -0.68,-1.07 -2.78,-1.07c-3.33,0 -3.76,-2.1 -3.31,-16.01c0.28,-8.8 -0.15,-15.75 -0.95,-15.46c-0.81,0.31 -2.38,0.55 -3.51,0.55c-3.09,0 -7.07,-21.74 -5.5,-30.1c1.57,-8.39 1.43,-8.42 -17.85,-4.93" fill="null" fill-opacity="null" id="svg_14" stroke="null" stroke-dasharray="null" stroke-linecap="null" stroke-linejoin="null" stroke-opacity="null" stroke-width="null"/>
   </g>
   <g fill="#C8DCC8FF" id="svg_15" stroke="#C8DCC8FF">
    <path d="m255.46,140.68c-15.16,6.49 -11.17,34.94 8.17,57.81l6.27,7.41l11.83,-11.58c6.49,-6.38 12.82,-11.58 14.07,-11.58c1.24,0 6.15,-4.07 10.98,-9.01l8.71,-9.01l-7.31,-6.18c-17.53,-14.76 -41.17,-22.78 -52.72,-17.85" id="svg_16"/>
   </g>
   <g fill="#A0C8AAFF" id="svg_17" stroke="#A0C8AAFF">
    <path d="m307.2,173.28c-4.79,4.94 -8.28,10.71 -8.28,13.73c0,3.24 -3.99,9.16 -10.75,15.93l-10.77,10.75l6.91,5.83c10.44,8.83 27.81,16.14 38.43,16.15c7.26,0.01 10.81,-1.3 15.19,-5.65c4.9,-4.93 5.55,-7.13 4.67,-16.14c-1.21,-12.65 -8.96,-28.79 -19.41,-40.49l-7.72,-8.65l-8.28,8.52" id="svg_18"/>
   </g>
   <g fill="#A0C8AAFF" id="svg_19" stroke="#A0C8AAFF">
    <path d="m243.75,448.82c0,18.79 -20.9,34.79 -54.88,41.98c-8.06,1.7 -18.87,3.11 -24.04,3.14c-9.23,0.04 -9.38,0.18 -9.38,7.66c0,7.46 -0.18,7.62 -10.49,8.55c-5.75,0.53 1.43,0.67 16.01,0.31c31.03,-0.72 54.52,-7.03 73.15,-19.63c22.16,-14.98 30.59,-42.38 15.19,-49.41c-5.5,-2.5 -5.56,-2.43 -5.56,7.4" id="svg_20"/>
   </g>
   <g fill="#C8DCC8FF" id="svg_21" stroke="#C8DCC8FF">
    <path d="m57.57,445.04c-8.61,9.5 -0.5,31.85 15.52,42.91c18.25,12.63 47.13,21.37 70.77,21.43l11.58,0.04l0,-7.72l0,-7.72l-10.49,-0.04c-14.9,-0.04 -37.93,-5.33 -51.71,-11.85c-17.04,-8.08 -26.32,-18.42 -27.72,-30.95c-1.26,-11.15 -2.51,-12.11 -7.94,-6.09" id="svg_22"/>
   </g>
   <g fill="#A0C8AAFF" id="svg_23" stroke="#A0C8AAFF" transform="matrix(2.20739, -0.0114509, 0.0114509, 2.20739, -98.6663, -205.232)">
    <path d="m241.54,114.42l-2.32,2.46l5.11,6.67c6.27,8.18 7.67,10.82 9.57,18.13c1.71,6.55 0.82,11.87 -2.46,14.84c-2.34,2.12 -1.8,3.53 1.35,3.53c4.41,0 8.62,-6.79 8.62,-13.88c0,-8.18 -5.53,-20.04 -14.03,-30.06l-3.53,-4.16l-2.31,2.47" id="svg_24"/>
   </g>
   <g fill="#C8DCC8FF" id="svg_25" stroke="#C8DCC8FF">
    <path d="m347.5,8.76c-5.92,4.02 -7.9,7.04 -8.46,12.88l-0.72,7.66l5.34,-5.01c11.54,-10.84 28.39,-10.55 51.2,0.89c13.71,6.86 23.93,14.44 35.29,26.09c4.79,4.93 6.86,6.69 4.62,3.95c-4.02,-4.88 -3.99,-5.1 0.72,-10.13l4.81,-5.12l-13.4,-10.53c-20.84,-16.37 -37.62,-23.84 -56.05,-24.98c-13.73,-0.84 -16.55,-0.33 -23.36,4.3" id="svg_26"/>
   </g>
   <g fill="#FFD25AFF" id="svg_9" stroke="#FFD25AFF">
    <path d="m164.16,99.97c-4.59,3.15 -11.15,10.67 -14.61,16.6c-5.59,9.72 -6.24,13.02 -6.24,31.48c0,24.02 2.88,31.66 18.7,49.55l10.22,11.57l-7.19,5.72c-9.67,7.72 -15.87,20.75 -17.53,37.02c-1.52,14.94 2.12,30.15 7.19,30.15c2.59,0 2.93,-3.22 1.79,-17c-1.3,-15.68 -0.95,-17.84 4.57,-27.41c3.31,-5.72 9.32,-12.97 13.37,-16.14l7.37,-5.72l14.53,6.09c11.39,4.76 18.16,6.06 31.39,6.02c24.48,-0.1 39.86,-6.76 59.07,-25.61c15.83,-15.55 17.32,-18.06 11.97,-20.13c-1.94,-0.75 -6.54,2.47 -11.48,8.03c-10,11.26 -34.84,24.36 -50.26,26.54c-11.08,1.57 -32.03,-1.48 -38.46,-5.59c-2.6,-1.66 -1.38,-4.16 6.41,-12.69c5.3,-5.87 12.19,-16.32 15.28,-23.24c11.21,-24.9 3.8,-59.94 -15.69,-74.33c-12.16,-8.96 -28.25,-9.32 -40.4,-0.93m34.2,9.98c9.64,7.16 15.84,22.19 15.84,38.55c0,17.17 -3.22,25.83 -14.57,39.1c-14.16,16.58 -15.69,16.69 -29.45,1.89c-14.3,-15.41 -17.53,-24.21 -16.37,-44.76c1.79,-32.03 24.35,-49.64 44.54,-34.76" id="svg_10"/>
   </g>
  </g>
 </g>

</svg>