<?xml version="1.0" encoding="UTF-8" standalone="no"?>
<svg
   width="512"
   height="512"
   preserveAspectRatio="xMidYMid meet"
   version="1.0"
   id="svg33"
   sodipodi:docname="paperphone4.svg"
   inkscape:version="1.2.2 (b0a8486541, 2022-12-01)"
   xmlns:inkscape="http://www.inkscape.org/namespaces/inkscape"
   xmlns:sodipodi="http://sodipodi.sourceforge.net/DTD/sodipodi-0.dtd"
   xmlns="http://www.w3.org/2000/svg"
   xmlns:svg="http://www.w3.org/2000/svg">
  <defs
     id="defs37" />
  <sodipodi:namedview
     id="namedview35"
     pagecolor="#ffffff"
     bordercolor="#666666"
     borderopacity="1.0"
     inkscape:showpageshadow="2"
     inkscape:pageopacity="0.0"
     inkscape:pagecheckerboard="0"
     inkscape:deskcolor="#d1d1d1"
     showgrid="false"
     inkscape:zoom="0.85058596"
     inkscape:cx="-53.492536"
     inkscape:cy="313.90125"
     inkscape:window-width="1826"
     inkscape:window-height="1051"
     inkscape:window-x="0"
     inkscape:window-y="0"
     inkscape:window-maximized="1"
     inkscape:current-layer="g31" />
  <g
     class="layer"
     id="g31">
    <title
       id="title2">Layer 1</title>
    <g
       fill="#E65A5AFF"
       id="svg_1"
       stroke="#E65A5AFF"
       stroke-opacity="0"
       style="stroke:none">
      <path
         d="m 216.97,264.08 c 8.3,9.98 8.12,19.91 -0.53,29.78 -8.59,9.76 -23.19,15.89 -45.83,19.19 l -18.21,2.65 v 87.92 c 0,55.77 0.8,88.41 2.19,89.27 3.4,2.1 34.92,-2.87 50.09,-7.88 7.5,-2.5 17.77,-7.5 22.81,-11.15 16.27,-11.79 16.11,-9.94 8.67,-108.16 -3.59,-47.81 -7.66,-89.68 -9.02,-93.06 -1.35,-3.36 -5.56,-8.3 -9.33,-10.98 l -6.89,-4.85 6.06,7.28"
         fill="#ff7f00"
         id="svg_2"
         stroke="#000000"
         style="stroke:none" />
    </g>
    <g
       fill="#EB7373FF"
       id="svg_3"
       stroke="#EB7373FF"
       stroke-opacity="0"
       style="stroke:none">
      <path
         d="m 87.3,266.81 c -3.33,3.71 -6.51,8.92 -7.07,11.57 -1.3,6.36 -12.37,159.1 -12.29,170.08 0.06,12.43 6.89,21.76 21.54,29.54 15.72,8.34 27.88,11.7 48.7,13.49 l 16.09,1.39 -0.13,-88.61 -0.15,-88.61 -4.93,-1.3 c -2.72,-0.72 -7.54,-1.35 -10.77,-1.38 -3.2,0 -12.38,-2.06 -20.41,-4.53 -27,-8.34 -38.92,-26.2 -28.37,-42.47 3.45,-5.3 3.2,-5.21 -2.2,0.81"
         fill="#f29137"
         id="svg_4"
         stroke="#000000"
         style="stroke:none" />
    </g>
    <g
       fill="#E65A5AFF"
       id="svg_5"
       stroke="#E65A5AFF"
       stroke-opacity="0"
       style="stroke:none">
      <path
         d="m 371.59,107.4 -55.59,55.74 7.5,8.83 c 11.06,13 18.71,30.04 18.71,41.61 0,13.36 -1.66,16.86 -9.72,20.35 l -6.85,2.97 5.89,0.09 c 6.76,0.1 3.4,2.72 74.06,-57.84 29.38,-25.21 54.58,-47.99 56,-50.62 3.71,-6.95 1.11,-25.84 -5.47,-39.64 -5.68,-11.92 -24.26,-37.23 -27.32,-37.23 -0.9,0 -26.67,25.07 -57.25,55.74"
         fill="#8f4dd1"
         id="svg_6"
         stroke="#000000"
         style="stroke:none" />
    </g>
    <g
       fill="#EB7373FF"
       id="svg_7"
       stroke="#EB7373FF"
       stroke-opacity="0"
       style="stroke:none">
      <path
         d="m 353.68,19.41 c -2.06,0.59 -27.63,28.92 -56.85,62.91 -41.34,48.12 -53.06,63.1 -53,67.72 l 0.09,5.93 2.97,-6.85 c 3.46,-7.97 7.04,-9.73 19.64,-9.67 10.95,0.06 24.45,5.83 39.5,16.86 l 10.95,8.03 56.2,-56.06 56.2,-56.06 -9.5,-8.37 C 401.03,27.25 368.14,15.11 353.66,19.4"
         fill="#9d66dd"
         id="svg_8"
         stroke="#000000"
         style="stroke:none" />
    </g>
    <g
       fill="#A0C8AAFF"
       id="svg_11"
       stroke="#A0C8AAFF"
       style="fill:#916f6f;stroke:none"
       transform="matrix(1.0558102,0,0,1.0802984,-12.767069,-22.835075)">
      <path
         d="m 159.5,244.76 c -2.72,1.67 -3.31,9.33 -2.28,29.58 0.18,3.64 -0.24,13.98 -0.93,22.96 l -1.26,16.36 14.16,-1.33 c 27.16,-2.54 50.23,-15.1 53.8,-29.24 2.54,-10.13 -4.67,-20.8 -18.98,-27.99 -13.77,-6.94 -40.1,-13.05 -44.49,-10.32"
         id="svg_12"
         style="fill:#916f6f;stroke:none" />
    </g>
    <g
       fill="#C8DCC8FF"
       id="svg_13"
       stroke="#C8DCC8FF"
       style="fill:#ac9393;stroke:none"
       transform="matrix(1.0549438,0,0,1.1013322,-8.6026514,-30.393528)">
      <path
         d="m 127.85,247.04 c -12.56,2.28 -25.89,8.79 -34.76,17 -4.72,4.36 -6.06,7.62 -6.06,14.72 0,10.99 6.55,18.28 23.05,25.56 33.93716,11.66191 45.0195,9.98436 45.0195,9.98436 -0.26532,7.07212 0.1405,-3.43436 0.5905,-17.34436 0.28,-8.8 -0.15,-15.75 -0.95,-15.46 -0.81,0.31 -2.38,0.55 -3.51,0.55 -3.09,0 -7.07,-21.74 -5.5,-30.1 1.57,-8.39 1.43,-8.42 -17.85,-4.93"
         id="svg_14"
         style="fill:#ac9393;stroke:none"/>
    </g>
    <g
       fill="#C8DCC8FF"
       id="svg_15"
       stroke="#C8DCC8FF"
       style="fill:#ac9393;stroke:none"
       transform="matrix(1.0636347,0,0,1.0198402,-18.165675,-3.2033426)">
      <path
         d="m 255.46,140.68 c -15.16,6.49 -11.17,34.94 8.17,57.81 l 6.27,7.41 11.83,-11.58 c 6.49,-6.38 12.82,-11.58 14.07,-11.58 1.24,0 6.15,-4.07 10.98,-9.01 l 8.71,-9.01 -7.31,-6.18 c -17.53,-14.76 -39.99763,-22.78 -51.54763,-17.85"
         id="svg_16"
         style="fill:#ac9393;stroke:none"
         sodipodi:nodetypes="ccccscccc" />
    </g>
    <g
       fill="#A0C8AAFF"
       id="svg_17"
       stroke="#A0C8AAFF"
       style="fill:#916f6f;stroke:none"
       transform="matrix(1.0941868,0,0,1.0683715,-31.270926,-14.937468)">
      <path
         d="m 307.2,173.28 c -4.79,4.94 -8.28,10.71 -8.28,13.73 0,3.24 -3.99,9.16 -10.75,15.93 l -13.04927,6.66489 9.18927,9.91511 c 10.44,8.83 27.81,16.14 38.43,16.15 7.26,0.01 10.81,-1.3 15.19,-5.65 4.9,-4.93 5.55,-7.13 4.67,-16.14 -1.21,-12.65 -8.96,-28.79 -19.41,-40.49 l -7.72,-8.65 -8.28,8.52"
         id="svg_18"
         style="fill:#916f6f;stroke:none"
         sodipodi:nodetypes="csccccccccc" />
    </g>
    <g
       fill="#A0C8AAFF"
       id="svg_19"
       stroke="#A0C8AAFF"
       style="fill:#916f6f;stroke:none">
      <path
         d="m 240.84039,446.53388 c 0.83132,19.20566 -15.08078,34.16651 -49.06078,41.35651 -8.06,1.7 -23.02659,4.35698 -28.19659,4.38698 -9.23,0.04 -8.34085,-1.48264 -8.13302,9.32263 0.38463,3.69146 -16.18209,8.11322 6.14349,7.61302 31.03,-0.72 53.89651,-5.78302 72.52651,-18.38302 22.16,-14.98 19.57505,-43.21132 12.69605,-47.74737"
         id="svg_20"
         style="fill:#916f6f;stroke:none"
         sodipodi:nodetypes="ccccccc" />
    </g>
    <g
       fill="#C8DCC8FF"
       id="svg_21"
       stroke="#C8DCC8FF"
       style="fill:#ac9393;stroke:none">
      <path
         d="m 57.57,445.04 c -8.61,9.5 -0.5,31.85 15.52,42.91 18.25,12.63 47.13,21.37 70.77,21.43 l 11.58,0.04 v -7.72 l 0.20783,-9.17481 -18.80317,-1.91046 c -14.9,-0.04 -28.99334,-4.29085 -42.773343,-10.81085 -17.04,-8.08 -24.241707,-17.58869 -25.641707,-30.11869 C 67.16961,438.53519 63.01,439.03 57.58,445.05"
         id="svg_22"
         style="fill:#ac9393;stroke:none"
         sodipodi:nodetypes="cccccccccc" />
    </g>
    <g
       fill="#A0C8AAFF"
       id="svg_23"
       stroke="#A0C8AAFF"
       transform="matrix(2.20739,-0.0114509,0.0114509,2.20739,-98.6663,-205.232)"
       style="fill:#916f6f;stroke:none">
      <path
         d="m 241.54,114.42 -3.26686,3.49076 5.11146,6.38755 c 6.27,8.18 7.5783,10.34876 9.4783,17.65876 1.71,6.55 -0.11661,10.92363 -3.39661,13.89363 -2.34,2.12 0.61044,5.7995 3.32371,4.1993 1.7792,-1.04932 7.20972,-7.17392 7.20972,-14.26392 0,-8.18 -4.11972,-19.65608 -12.61972,-29.67608 L 243.56572,112.30159 241.54,114.42"
         id="svg_24"
         style="fill:#916f6f;stroke:none"
         sodipodi:nodetypes="cccccssccc" />
    </g>
    <g
       fill="#C8DCC8FF"
       id="svg_25"
       stroke="#C8DCC8FF"
       style="fill:#ac9393;stroke:none">
      <path
         d="m 347.5,8.76 c -5.92,4.02 -7.9,7.04 -8.46,12.88 l 0.94263,11.608757 10.12008,-9.790074 c 11.54,-10.84 18.62202,0.257124 41.84768,3.591781 13.71,6.86 25.3848,13.608683 36.7448,25.258683 8.12084,-8.603412 2.37345,-2.51291 6.79481,-7.219147 L 440.3,39.97 426.9,29.44 C 406.06,13.07 389.28,5.6 370.85,4.46 357.12,3.62 354.3,4.13 347.49,8.76"
         id="svg_26"
         style="fill:#ac9393;stroke:none"
         sodipodi:nodetypes="ccccccccccc" />
    </g>
    <g
       fill="#FFD25AFF"
       id="svg_9"
       stroke="#FFD25AFF"
       style="fill:#d4aa00;stroke:none"
       transform="matrix(1.0130016,0,0,1,-5.0963259,-1.1756602)">
      <path
         d="m 164.16,99.97 c -4.59,3.15 -11.15,10.67 -14.61,16.6 -5.59,9.72 -6.24,13.02 -6.24,31.48 0,24.02 2.88,31.66 18.7,49.55 l 10.22,11.57 -7.19,5.72 c -9.67,7.72 -15.87,20.75 -17.53,37.02 -1.52,14.94 2.12,30.15 7.19,30.15 2.59,0 2.93,-3.22 1.79,-17 -1.3,-15.68 -0.95,-17.84 4.57,-27.41 3.31,-5.72 9.32,-12.97 13.37,-16.14 l 7.37,-5.72 14.53,6.09 c 11.39,4.76 18.16,6.06 31.39,6.02 24.48,-0.1 39.86,-6.76 59.07,-25.61 15.83,-15.55 17.32,-18.06 11.97,-20.13 -1.94,-0.75 -6.54,2.47 -11.48,8.03 -10,11.26 -34.84,24.36 -50.26,26.54 -11.08,1.57 -32.03,-1.48 -38.46,-5.59 -2.6,-1.66 -1.38,-4.16 6.41,-12.69 5.3,-5.87 12.19,-16.32 15.28,-23.24 11.21,-24.9 3.8,-59.94 -15.69,-74.33 -12.16,-8.96 -28.25,-9.32 -40.4,-0.93 m 34.2,9.98 c 9.64,7.16 15.84,22.19 15.84,38.55 0,17.17 -3.22,25.83 -14.57,39.1 -14.16,16.58 -15.69,16.69 -29.45,1.89 -14.3,-15.41 -17.53,-24.21 -16.37,-44.76 1.79,-32.03 24.35,-49.64 44.54,-34.76"
         id="svg_10"
         style="fill:#d4aa00;stroke:none" />
    </g>
  </g>
</svg>
